<?xml version="1.0" encoding="iso-8859-1"?>
<!-- Generator: Adobe Illustrator 19.0.0, SVG Export Plug-In . SVG Version: 6.00 Build 0)  -->
<svg version="1.1" id="Layer_1" xmlns="http://www.w3.org/2000/svg" xmlns:xlink="http://www.w3.org/1999/xlink" x="0px" y="0px"
	 viewBox="0 0 512 512" style="enable-background:new 0 0 512 512;" xml:space="preserve">
<g transform="translate(0 1)">
	<g>
		<g>
			<path d="M401.067,127c0-14.054-8.609-26.193-20.813-31.41C365.636,39.288,314.043-1,256-1
				c-58.873,0-109.684,40.289-124.256,96.591c-12.203,5.217-20.811,17.355-20.811,31.409c0,13.016,7.387,24.386,18.173,30.139
				l3.648,77.893c-0.318,0.856-0.487,1.796-0.487,2.902l8.533,179.2c0,1.177,0.234,2.259,0.633,3.235l1.927,41.138
				c0.853,28.16,23.893,49.493,51.2,49.493h122.88c27.307,0,50.347-21.333,51.2-49.493l14.254-304.368
				C393.68,151.386,401.067,140.016,401.067,127z M256,16.067c47.787,0,90.453,31.573,104.96,76.8H150.187
				C164.693,47.64,207.36,16.067,256,16.067z M362.115,229.4h-212.23l-3.112-68.267h218.453L362.115,229.4z M353.946,408.6H158.054
				l-7.391-162.133h210.674L353.946,408.6z M351.573,460.653c-0.853,18.773-15.36,33.28-34.133,33.28H194.56
				c-17.92,0-33.28-14.507-34.133-33.28l-1.595-34.987h194.336L351.573,460.653z M372.577,143.081
				c-0.175,0.043-0.349,0.074-0.524,0.132c-0.124,0.062-0.247,0.11-0.371,0.163c-1.51,0.441-3.101,0.69-4.749,0.69H145.067
				c-1.648,0-3.238-0.249-4.749-0.69c-0.124-0.053-0.247-0.102-0.371-0.163c-0.175-0.058-0.349-0.089-0.524-0.132
				C132.792,140.736,128,134.408,128,127c0-7.542,4.963-13.974,11.781-16.213c0.57,0,1.019,0,1.019,0
				c0.942-0.471,1.879-0.678,2.678-0.772c0.524-0.049,1.052-0.081,1.589-0.081h221.867c0.536,0,1.065,0.032,1.589,0.081
				c0.799,0.094,1.736,0.301,2.678,0.772c0.295,0,0.604-0.014,0.918-0.037C378.989,112.958,384,119.42,384,127
				C384,134.408,379.208,140.736,372.577,143.081z"/>
			<path d="M214.187,327.533c0.853,3.413,4.267,5.12,7.68,5.12h49.493l-39.253,45.227c-3.413,3.413-2.56,8.533,0.853,11.947
				c1.707,0.853,4.267,1.707,5.973,1.707c2.56,0,5.12-0.853,6.827-2.56l51.2-59.733c1.707-2.56,2.56-5.973,0.853-9.387
				c-1.707-3.413-4.267-5.12-7.68-5.12h-47.787l36.693-35.84c3.413-3.413,3.413-8.533,0-11.947s-8.533-3.413-11.947,0l-51.2,51.2
				C213.333,320.707,213.333,324.12,214.187,327.533z"/>
		</g>
	</g>
</g>
<g>
</g>
<g>
</g>
<g>
</g>
<g>
</g>
<g>
</g>
<g>
</g>
<g>
</g>
<g>
</g>
<g>
</g>
<g>
</g>
<g>
</g>
<g>
</g>
<g>
</g>
<g>
</g>
<g>
</g>
</svg>
